File Name

Knight And Day 2010 R5 LiNE H264.mp4

File Size
Format : MPEG-4
Format profile : Base Media
Codec ID : isom
File size : 1.75 GiB
Duration : 1h 45mn
Overall bit rate : 2 380 Kbps

Video
ID : 1
Format : AVC
Format/Info : Advanced Video Codec
Format profile : High@L4.1
Format settings, CABAC : Yes
Format settings, ReFrames : 3 frames
Codec ID : avc1
Codec ID/Info : Advanced Video Coding
Duration : 1h 45mn
Bit rate mode : Variable
Bit rate : 2 250 Kbps
Maximum bit rate : 8 675 Kbps
Width : 720 pixels
Height : 288 pixels
Display aspect ratio : 2.500
Frame rate mode : Constant
Frame rate : 25.000 fps
Resolution : 24 bits
Colorimetry : 4:2:0
Scan type : Progressive
Bits/(Pixel*Frame) : 0.434
Stream size : 1.65 GiB (94%)

Audio
ID : 2
Format : AAC
Format/Info : Advanced Audio Codec
Format version : Version 4
Format profile : LC
Format settings, SBR : No
Codec ID : 40
Duration : 1h 45mn
Bit rate mode : Variable
Bit rate : 128 Kbps
Maximum bit rate : 136 Kbps
Channel(s) : 2 channels
Channel positions : L R
Sampling rate : 48.0 KHz
Resolution : 16 bits
Stream size : 96.2 MiB (5%)

English SRT :
Language : English

Source : R5 LiNE DVDR-TDM

Release Date: 23 June 2010 (USA)

Genre: Action | Adventure | Comedy | Thriller

Plot: June Havens finds her everyday life tangled with that of a secret agent who has realized he isn't supposed to survive his latest mission...

Cast:
Tom Cruise ... Roy Miller
Cameron Diaz ... June Havens
Peter Sarsgaard ... Fitzgerald
Jordi Mollà ... Antonio
Viola Davis ... Director George
Paul Dano ... Simon Feck
Falk Hentschel ... Bernhard
Marc Blucas ... Rodney
Lennie Loftin ... Braces
Maggie Grace ... April Havens
Rich Manley ... Danny
Dale Dye ... Frank Jenkins
Celia Weston ... Molly
Gal Gadot ... Naomi
Jack O'Connell ... Wilmer (as Jack A. O'Connell)

Poster/Screenshots